# xmcd
#
# Track frame offsets:
#	150
#	1880
#	9855
#	19912
#	27412
#	39289
#	54097
#	69977
#	81502
#	95325
#	105270
#	118210
#	137212
#	147417
#	156992
#
# Disc length: 2239 seconds
#
# Revision: 1
# Processed by: cddbd v1.5.2PL0 Copyright (c) Steve Scherf et al.
# Submitted via: audiograbber 1.83.01
#
DISCID=b808bd0f
DTITLE=The Wanktones - Live at the Fontana Bowlarama
DYEAR=1997
DGENRE=Rockabilly
TTITLE0=Intro
TTITLE1=Down The Line
TTITLE2=Rocket
TTITLE3=Cotton Pickin Rocker
TTITLE4=Little Pig
TTITLE5=Danny Boy
TTITLE6=My Baby's Gone
TTITLE7=My Yearning Burning Heart
TTITLE8=Take Me Back To Tulsa
TTITLE9=I'm Walking the Floor Over You
TTITLE10=Drivin' Nails In My Coffin
TTITLE11=Snap Your Fingers
TTITLE12=Devil With The Devil
TTITLE13=Hello Trouble
TTITLE14=Hoy Hoy
EXTD=The Slickee Boys' Alter Ego
EXTT0=
EXTT1=
EXTT2=
EXTT3=
EXTT4=
EXTT5=
EXTT6=
EXTT7=
EXTT8=
EXTT9=
EXTT10=
EXTT11=
EXTT12=
EXTT13=
EXTT14=
PLAYORDER=
